# xmcd CD database file
#
# Track frame offsets:
#	150
#	17025
#	37495
#	54513
#	70418
#	85133
#	99230
#	112633
#	127700
#	139670
#	155548
#	170765
#	183728
#
# Disc length: 2648 seconds
#
# Revision: 0
# Processed by: cddbd v1.4PL0 Copyright (c) Steve Scherf et al.
# Submitted via: CDex 1.50Beta5
#
DISCID=ab0a560d
DTITLE=PE-TO Bandet - Cowboy beat
DYEAR=1993
DGENRE=Country
TTITLE0=Livin'in these troubled times
TTITLE1=The feeling never goes away
TTITLE2=The heart knows the truth
TTITLE3=Min bästa vän
TTITLE4=Tourist in paradise
TTITLE5=Stad i ljus
TTITLE6=Even cowgirls get the blues
TTITLE7=Isabelle
TTITLE8=Fools fall in love
TTITLE9=Burn one down
TTITLE10=Cowboy beat
TTITLE11=Land of enchantment (New Mexico)
TTITLE12=Wake up yesterday
EXTD=YEAR: 1993
EXTT0=
EXTT1=
EXTT2=
EXTT3=
EXTT4=
EXTT5=
EXTT6=
EXTT7=
EXTT8=
EXTT9=
EXTT10=
EXTT11=
EXTT12=
PLAYORDER=
